<?xml version="1.0" standalone="no"?><!DOCTYPE svg PUBLIC "-//W3C//DTD SVG 1.1//EN" "http://www.w3.org/Graphics/SVG/1.1/DTD/svg11.dtd"><svg height="249" node-id="1" sillyvg="true" template-height="249" template-width="299" version="1.1" viewBox="0 0 299 249" width="299" xmlns="http://www.w3.org/2000/svg" xmlns:xlink="http://www.w3.org/1999/xlink"><defs node-id="60"></defs><path d="M 72.41 184.13 C 71.90 184.13 71.48 183.76 71.41 183.26 C 71.41 183.11 69.69 168.39 84.06 163.53 C 90.99 161.19 96.26 165.67 100.91 169.62 C 106.21 174.12 110.79 178.01 117.18 172.91 C 121.94 169.13 122.98 161.54 123.98 154.20 C 125.06 146.33 126.07 138.90 131.37 135.47 C 134.82 133.22 139.67 133.05 146.18 134.95 C 146.71 135.10 147.01 135.66 146.86 136.19 C 146.71 136.72 146.15 137.02 145.62 136.87 C 139.70 135.14 135.40 135.23 132.45 137.14 C 127.93 140.08 126.98 147.07 125.96 154.47 C 124.96 162.20 123.81 170.19 118.43 174.47 C 110.74 180.59 105.09 175.78 99.61 171.13 C 94.96 167.13 90.56 163.44 84.70 165.42 C 71.90 169.74 73.32 182.42 73.39 183.00 C 73.45 183.55 73.07 184.04 72.52 184.11 Z" fill="#0a1640" fill-rule="nonzero" node-id="63" stroke="none" target-height="51.08429" target-width="77.32463" target-x="69.69" target-y="133.05"></path><path d="M 82.25 189.57 L 80.31 191.44 L 77.17 194.44 L 67.91 203.35 C 64.72 206.42 60.45 208.09 56.03 208.00 C 51.61 207.91 47.40 206.07 44.34 202.88 C 37.98 196.24 38.19 185.71 44.81 179.33 L 57.21 167.40 L 59.15 165.54 C 65.81 159.42 76.15 159.74 82.42 166.26 C 88.70 172.78 88.62 183.11 82.25 189.54 Z" fill="#6b7fff" fill-rule="nonzero" node-id="65" stroke="none" target-height="48.668808" target-width="50.716187" target-x="37.98014" target-y="159.41992"></path><g node-id="183"><path d="M 82.71 166.00 C 85.77 169.19 87.44 173.46 87.36 177.88 C 87.27 182.30 85.43 186.50 82.24 189.56 L 80.31 191.43 C 69.06 187.83 60.38 178.81 57.21 167.43 L 59.15 165.57 C 62.33 162.50 66.60 160.83 71.02 160.91 C 75.44 160.99 79.65 162.83 82.71 166.02 Z" fill="#ffffff" fill-opacity="0.5" fill-rule="nonzero" group-id="1" node-id="69" stroke="none" target-height="30.60402" target-width="30.233719" target-x="57.21" target-y="160.82597"></path></g><path d="M 70.30 177.85 L 70.30 177.85 C 70.92 178.49 71.76 178.85 72.64 178.86 C 73.53 178.87 74.38 178.53 75.01 177.91 L 77.69 175.30 C 78.33 174.68 78.69 173.84 78.70 172.96 C 78.71 172.07 78.37 171.22 77.75 170.59 L 77.75 170.59 C 76.47 169.28 74.37 169.25 73.05 170.53 L 70.36 173.15 C 69.05 174.43 69.02 176.53 70.30 177.85 Z" fill="#6b7fff" fill-rule="nonzero" node-id="72" stroke="none" target-height="9.619019" target-width="9.689011" target-x="69.0222" target-y="169.2522"></path><path d="M 77.17 194.46 L 67.91 203.37 C 64.72 206.44 60.45 208.11 56.03 208.02 C 51.61 207.93 47.40 206.09 44.34 202.90 C 41.13 199.58 39.46 195.08 39.73 190.47 C 41.29 192.41 43.19 194.06 45.33 195.33 C 51.95 199.25 59.33 198.57 65.99 195.20 C 68.65 193.87 71.49 192.59 74.53 193.20 C 75.50 193.39 76.41 193.82 77.17 194.46 Z" fill="#0a1640" fill-opacity="0.25" fill-rule="nonzero" group-id="2" node-id="76" stroke="none" target-height="17.638733" target-width="37.708637" target-x="39.46136" target-y="190.47"></path><path d="M 56.22 177.00 C 54.69 178.98 53.02 180.84 51.22 182.57 C 49.45 184.33 47.55 185.96 45.54 187.44 C 45.30 187.63 44.96 187.61 44.75 187.39 C 44.54 187.17 44.53 186.83 44.72 186.60 C 47.81 182.68 51.41 179.18 55.42 176.19 C 55.54 176.10 55.70 176.06 55.85 176.09 C 56.00 176.11 56.14 176.20 56.23 176.32 C 56.37 176.53 56.36 176.80 56.22 177.00 Z" fill="#ffffff" fill-opacity="0.5" fill-rule="nonzero" group-id="3" node-id="81" stroke="none" target-height="11.565445" target-width="11.84177" target-x="44.526077" target-y="176.06282"></path><path d="M 71.05 159.90 C 66.36 159.81 61.83 161.58 58.46 164.84 C 58.35 164.93 56.39 166.84 56.46 166.71 L 44.12 178.63 C 39.54 183.00 37.65 189.48 39.16 195.62 C 40.67 201.77 45.35 206.63 51.43 208.38 C 57.51 210.13 64.06 208.49 68.60 204.09 L 82.94 190.30 L 82.94 190.30 C 94.45 179.21 86.40 160.20 71.05 159.90 Z M 80.05 190.30 C 75.23 188.64 70.84 185.93 67.19 182.37 L 70.46 179.23 C 74.39 181.64 77.12 176.89 78.39 176.01 C 79.79 174.66 80.10 172.53 79.15 170.83 L 82.65 167.47 C 86.82 172.42 87.53 179.43 84.42 185.11 C 83.26 187.07 81.79 188.83 80.05 190.30 Z M 69.30 162.00 C 73.70 161.58 78.06 163.06 81.30 166.06 L 77.85 169.38 C 76.15 168.21 73.87 168.40 72.39 169.84 C 70.56 171.91 68.39 172.84 68.39 175.51 C 68.38 176.34 68.61 177.16 69.06 177.86 L 65.84 180.96 C 62.40 177.17 59.85 172.66 58.37 167.76 C 61.67 164.51 64.31 162.40 69.30 162.00 Z M 71.06 173.89 L 73.75 171.27 C 74.68 170.51 76.04 170.59 76.88 171.45 C 77.72 172.30 77.77 173.66 77.00 174.58 L 77.00 174.58 L 74.31 177.20 C 72.11 179.35 68.87 176.00 71.06 173.86 Z M 67.21 202.67 C 64.21 205.56 60.17 207.12 56.00 207.00 C 42.00 206.71 35.51 189.62 45.46 180.00 L 56.69 169.20 C 60.12 179.64 68.11 187.95 78.40 191.78 Z" fill="#0a1640" fill-rule="nonzero" node-id="84" stroke="none" target-height="50.32376" target-width="58.94" target-x="35.51" target-y="159.80638"></path><path d="M 274.07 90.51 L 246.58 186.32 C 246.15 187.83 245.13 189.11 243.75 189.88 C 242.38 190.64 240.75 190.82 239.24 190.39 L 181.31 173.77 L 172.65 171.28 L 158.44 167.21 L 100.50 150.58 C 98.99 150.15 97.71 149.13 96.95 147.75 C 96.19 146.37 96.00 144.75 96.44 143.24 L 123.93 47.42 C 124.36 45.91 125.38 44.63 126.76 43.87 C 128.14 43.11 129.76 42.92 131.27 43.36 L 270.00 83.16 C 271.52 83.59 272.80 84.61 273.56 85.99 C 274.32 87.37 274.51 89.00 274.07 90.51 Z" fill="#6b7fff" fill-rule="nonzero" node-id="86" stroke="none" target-height="147.90022" target-width="178.50327" target-x="96.0047" target-y="42.9247"></path><path d="M 181.31 173.77 L 176.45 197.82 L 149.81 190.17 L 150.90 187.27 L 158.44 167.21 L 172.65 171.28 L 181.31 173.77 Z" fill="#6b7fff" fill-rule="nonzero" node-id="88" stroke="none" target-height="30.61" target-width="31.5" target-x="149.81" target-y="167.21"></path><path d="M 202.24 212.61 L 202.11 212.68 C 201.69 212.97 201.20 213.12 200.69 213.12 C 199.18 213.12 195.87 212.12 184.90 208.93 C 173.78 205.67 155.18 200.22 122.59 191.02 C 120.39 190.39 119.11 188.09 119.74 185.88 C 120.37 183.67 122.67 182.39 124.88 183.02 L 149.81 190.17 L 176.45 197.82 L 201.38 205.00 C 203.00 205.47 204.18 206.86 204.36 208.53 C 204.55 210.21 203.71 211.83 202.24 212.64 Z" fill="#6b7fff" fill-rule="nonzero" node-id="90" stroke="none" target-height="30.733124" target-width="85.44201" target-x="119.1101" target-y="182.39082"></path><path d="M 249.92 174.68 L 246.58 186.32 C 245.67 189.47 242.39 191.29 239.24 190.39 L 100.51 150.59 C 98.99 150.16 97.71 149.14 96.95 147.76 C 96.19 146.38 96.00 144.75 96.44 143.24 L 99.78 131.61 Z" fill="#ffffff" fill-opacity="0.5" fill-rule="nonzero" group-id="4" node-id="94" stroke="none" target-height="59.679825" target-width="153.91797" target-x="96.00203" target-y="131.61"></path><path d="M 202.24 212.61 L 202.11 212.68 C 201.69 212.97 201.20 213.12 200.69 213.12 C 199.18 213.12 195.87 212.12 184.90 208.93 C 173.78 205.67 155.18 200.22 122.59 191.02 C 120.39 190.39 119.11 188.09 119.74 185.88 C 120.37 183.67 122.67 182.39 124.88 183.02 L 149.81 190.17 L 176.45 197.82 L 201.38 205.00 C 203.00 205.47 204.18 206.86 204.36 208.53 C 204.55 210.21 203.71 211.83 202.24 212.64 Z" fill="#ffffff" fill-opacity="0.5" fill-rule="nonzero" group-id="4" node-id="96" stroke="none" target-height="30.733124" target-width="85.44201" target-x="119.1101" target-y="182.39082"></path><path d="M 109.70 125.37 L 130.67 52.27 L 131.02 51.62 L 131.55 51.17 L 132.22 50.96 L 132.95 51.01 L 264.53 88.77 L 265.18 89.11 L 265.63 89.65 L 265.85 90.31 L 265.79 91.04 L 244.82 164.14 L 244.48 164.79 L 243.94 165.24 L 243.28 165.45 L 242.54 165.40 L 110.96 127.64 L 110.31 127.30 L 109.86 126.76 L 109.64 126.10 L 109.70 125.37 Z" fill="#ffffff" fill-rule="nonzero" group-id="5" node-id="101" stroke="none" target-height="114.4987" target-width="156.20578" target-x="109.644875" target-y="50.955887"></path><path d="M 145.12 97.00 L 142.06 95.80 C 141.86 95.73 141.64 95.75 141.47 95.87 L 138.75 97.71 C 138.55 97.85 138.29 97.86 138.08 97.74 C 137.86 97.62 137.74 97.39 137.75 97.15 L 137.94 93.86 C 137.96 93.65 137.87 93.45 137.70 93.32 L 135.10 91.32 C 134.91 91.17 134.82 90.93 134.87 90.69 C 134.92 90.45 135.10 90.26 135.33 90.20 L 138.52 89.37 C 138.72 89.32 138.89 89.17 138.96 88.97 L 140.08 85.88 C 140.16 85.65 140.36 85.49 140.60 85.46 C 140.85 85.43 141.08 85.54 141.21 85.75 L 143.00 88.48 C 143.11 88.66 143.30 88.77 143.51 88.77 L 146.80 88.88 C 147.03 88.90 147.23 89.04 147.32 89.25 C 147.42 89.45 147.40 89.69 147.27 89.88 L 145.19 92.43 C 145.05 92.59 145.01 92.81 145.07 93.01 L 145.98 96.17 C 146.08 96.41 146.03 96.70 145.84 96.88 C 145.64 97.06 145.36 97.11 145.12 97.00 Z" fill="#e38921" fill-rule="nonzero" node-id="104" stroke="none" target-height="12.427864" target-width="12.59729" target-x="134.82126" target-y="85.4306"></path><path d="M 181.76 139.35 L 180.22 136.45 C 180.13 136.26 179.94 136.13 179.73 136.11 L 176.46 135.73 C 176.22 135.70 176.02 135.54 175.94 135.31 C 175.86 135.08 175.91 134.82 176.08 134.65 L 178.37 132.29 C 178.52 132.14 178.58 131.93 178.54 131.72 L 177.89 128.49 C 177.85 128.25 177.94 128.01 178.13 127.87 C 178.33 127.72 178.58 127.69 178.80 127.80 L 181.75 129.25 C 181.94 129.34 182.15 129.34 182.34 129.25 L 185.21 127.64 C 185.42 127.52 185.69 127.53 185.89 127.67 C 186.09 127.81 186.20 128.05 186.16 128.29 L 185.69 131.54 C 185.66 131.75 185.74 131.96 185.89 132.10 L 188.31 134.33 C 188.49 134.50 188.56 134.75 188.49 134.98 C 188.42 135.22 188.22 135.39 187.98 135.43 L 184.74 135.99 C 184.54 136.03 184.36 136.16 184.27 136.35 L 182.90 139.35 C 182.80 139.57 182.57 139.71 182.33 139.71 C 182.09 139.71 181.86 139.57 181.76 139.35 Z" fill="#e38921" fill-rule="nonzero" node-id="106" stroke="none" target-height="12.19297" target-width="12.701599" target-x="175.85577" target-y="127.5187"></path><path d="M 239.29 124.36 L 237.76 121.45 C 237.66 121.27 237.48 121.14 237.27 121.12 L 234.00 120.74 C 233.76 120.71 233.56 120.55 233.48 120.32 C 233.40 120.09 233.45 119.83 233.62 119.66 L 235.91 117.30 C 236.06 117.15 236.12 116.93 236.07 116.73 L 235.43 113.50 C 235.39 113.26 235.48 113.02 235.67 112.88 C 235.87 112.73 236.12 112.70 236.34 112.81 L 239.29 114.26 C 239.48 114.35 239.69 114.35 239.88 114.26 L 242.75 112.65 C 242.96 112.53 243.22 112.54 243.42 112.67 C 243.62 112.81 243.73 113.05 243.69 113.29 L 243.23 116.55 C 243.20 116.76 243.27 116.97 243.43 117.11 L 245.84 119.34 C 246.02 119.50 246.09 119.76 246.02 119.99 C 245.95 120.22 245.76 120.40 245.52 120.44 L 242.28 121.00 C 242.07 121.04 241.90 121.17 241.81 121.36 L 240.44 124.36 C 240.33 124.58 240.11 124.72 239.87 124.72 C 239.62 124.72 239.40 124.58 239.29 124.36 Z" fill="#e38921" fill-rule="nonzero" node-id="108" stroke="none" target-height="12.191284" target-width="12.692413" target-x="233.39578" target-y="112.527695"></path><path d="M 181.31 173.77 L 176.45 197.77 L 149.81 190.12 L 150.90 187.22 C 162.04 185.52 168.68 178.64 172.65 171.22 Z" fill="#0a1640" fill-opacity="0.25" fill-rule="nonzero" group-id="6" node-id="112" stroke="none" target-height="26.550003" target-width="31.5" target-x="149.81" target-y="171.22"></path><path d="M 274.07 90.51 L 246.58 186.32 C 245.67 189.47 242.39 191.29 239.24 190.39 L 100.51 150.59 C 98.99 150.16 97.71 149.14 96.95 147.76 C 96.19 146.38 96.00 144.75 96.44 143.24 L 97.25 140.43 C 105.96 142.43 114.68 144.52 123.42 146.50 C 142.17 150.75 160.98 155.41 180.08 157.83 C 192.51 159.41 205.71 160.05 217.68 155.66 C 243.60 146.13 261.29 109.53 264.78 81.66 L 270.00 83.16 C 271.51 83.59 272.79 84.61 273.56 85.99 C 274.32 87.37 274.51 89.00 274.07 90.51 Z" fill="#0a1640" fill-opacity="0.25" fill-rule="nonzero" group-id="6" node-id="114" stroke="none" target-height="109.62982" target-width="178.50316" target-x="96.00203" target-y="81.66"></path><path d="M 172.00 84.27 C 175.11 82.33 180.07 83.62 182.50 86.14 C 184.93 88.66 183.67 92.29 178.90 92.30 C 172.39 92.32 168.00 86.78 172.00 84.27 Z" fill="#d811ad" fill-rule="nonzero" node-id="117" stroke="none" target-height="9.989998" target-width="16.929993" target-x="168" target-y="82.33"></path><path d="M 213.77 96.25 C 212.17 92.96 207.28 91.42 203.88 92.25 C 200.48 93.08 199.63 96.84 203.66 99.38 C 209.18 102.88 215.85 100.51 213.77 96.25 Z" fill="#d811ad" fill-rule="nonzero" node-id="119" stroke="none" target-height="11.459999" target-width="16.220001" target-x="199.63" target-y="91.42"></path><path d="M 241.07 88.92 C 248.91 89.43 251.14 101.75 245.86 101.40 C 245.16 101.36 244.50 101.04 244.04 100.51 C 243.58 99.98 243.34 99.29 243.39 98.59 C 243.54 96.31 242.32 94.30 240.73 94.19 C 239.14 94.08 237.66 95.93 237.51 98.19 C 237.47 98.89 237.15 99.54 236.62 100.01 C 236.09 100.47 235.40 100.70 234.70 100.65 C 229.46 100.33 233.23 88.41 241.07 88.92 Z" fill="#ff8cdb" fill-rule="nonzero" node-id="121" stroke="none" target-height="13.339996" target-width="21.679993" target-x="229.46" target-y="88.41"></path><path d="M 140.60 111.83 C 142.22 116.83 140.01 122.00 135.69 123.40 C 131.37 124.80 126.55 121.88 124.94 116.89 C 124.65 115.56 125.41 114.23 126.70 113.81 C 128.00 113.39 129.40 114.02 129.94 115.27 C 130.64 117.44 132.52 118.87 134.04 118.37 C 135.56 117.87 136.25 115.63 135.55 113.45 C 135.26 112.12 136.02 110.79 137.31 110.37 C 138.61 109.95 140.01 110.58 140.55 111.83 Z" fill="#ff8cdb" fill-rule="nonzero" node-id="123" stroke="none" target-height="14.851067" target-width="17.573868" target-x="124.64613" target-y="109.94894"></path><path d="M 212.11 118.93 C 214.46 126.43 203.77 132.93 202.19 127.93 C 201.98 127.26 202.04 126.54 202.37 125.92 C 202.69 125.30 203.25 124.83 203.92 124.62 C 206.10 123.94 207.54 122.07 207.07 120.55 C 206.60 119.03 204.34 118.31 202.16 118.99 C 201.49 119.20 200.77 119.14 200.15 118.81 C 199.53 118.49 199.06 117.93 198.85 117.26 C 197.28 112.21 209.76 111.43 212.11 118.93 Z" fill="#ff8cdb" fill-rule="nonzero" node-id="125" stroke="none" target-height="21.499992" target-width="17.180008" target-x="197.28" target-y="111.43"></path><path d="M 150.18 74.10 C 151.87 72.91 153.33 73.32 152.76 72.10 C 152.03 70.47 150.76 69.14 149.17 68.32 C 147.74 67.56 147.73 67.65 147.29 69.08 C 146.23 72.45 142.29 74.57 140.03 72.36 C 137.77 70.15 139.86 67.20 142.56 65.79 C 143.81 65.15 145.39 65.10 143.67 63.60 C 142.51 62.60 140.48 62.13 139.80 61.74 C 138.47 60.97 139.53 59.36 140.98 59.74 C 147.20 61.30 146.11 64.74 148.67 65.57 C 151.25 66.43 153.40 68.26 154.67 70.66 C 155.79 72.66 155.01 73.21 156.67 74.00 C 162.38 76.63 160.45 84.29 158.39 83.00 C 157.14 82.23 160.20 79.39 156.10 76.27 C 155.01 75.44 155.40 79.49 151.34 80.59 C 150.42 80.85 149.43 80.63 148.71 80.01 C 147.00 78.31 148.36 75.38 150.18 74.10 Z M 142.30 70.78 C 143.69 70.55 144.79 69.50 145.07 68.12 C 145.41 66.74 142.39 67.91 141.65 69.82 C 141.56 70.04 141.59 70.28 141.72 70.47 C 141.85 70.66 142.07 70.78 142.30 70.78 Z M 152.53 75.34 C 150.79 75.18 149.53 77.99 150.43 78.46 C 151.60 79.06 154.21 75.50 152.53 75.34 Z" fill="#6b7fff" fill-rule="nonzero" node-id="127" stroke="none" target-height="24.93" target-width="24.61" target-x="137.77" target-y="59.36"></path><path d="M 166.44 112.80 C 166.53 114.87 165.44 115.88 166.77 116.09 C 168.54 116.34 170.34 115.99 171.89 115.09 C 173.30 114.30 173.23 114.25 172.27 113.09 C 170.00 110.38 170.35 105.92 173.43 105.21 C 176.51 104.50 177.86 107.86 177.59 110.89 C 177.46 112.29 176.59 113.65 178.84 113.01 C 180.32 112.58 181.79 111.12 182.49 110.76 C 183.85 110.06 184.64 111.82 183.55 112.84 C 178.88 117.24 176.55 114.47 174.49 116.17 C 172.37 117.88 169.67 118.70 166.96 118.47 C 164.67 118.33 164.63 117.37 163.04 118.39 C 157.74 121.77 152.34 116.01 154.52 114.96 C 155.85 114.32 156.58 118.43 161.43 116.67 C 162.71 116.20 159.09 114.34 160.36 110.33 C 160.64 109.42 161.36 108.71 162.27 108.43 C 164.62 107.85 166.34 110.58 166.44 112.80 Z M 173.49 107.97 C 172.93 109.26 173.23 110.76 174.23 111.74 C 175.23 112.74 175.86 109.59 174.65 107.94 C 174.51 107.76 174.29 107.66 174.05 107.67 C 173.82 107.68 173.61 107.80 173.49 108.00 Z M 164.13 114.11 C 165.20 112.73 163.51 110.11 162.63 110.66 C 161.49 111.32 163.09 115.44 164.13 114.11 Z" fill="#6b7fff" fill-rule="nonzero" node-id="129" stroke="none" target-height="17.269997" target-width="32.300003" target-x="152.34" target-y="104.5"></path><path d="M 228.50 137.40 C 226.72 138.40 225.29 137.93 225.76 139.24 C 226.37 140.91 227.52 142.32 229.04 143.24 C 230.40 144.12 230.41 144.03 230.97 142.64 C 232.30 139.37 236.40 137.57 238.47 139.95 C 240.54 142.33 238.22 145.11 235.42 146.30 C 234.13 146.84 232.54 146.76 234.13 148.40 C 235.21 149.50 237.20 150.11 237.85 150.56 C 239.11 151.43 237.92 152.95 236.51 152.48 C 230.43 150.42 231.80 147.11 229.31 146.05 C 226.80 144.99 224.80 143.00 223.73 140.50 C 222.73 138.40 223.60 137.92 221.95 137.00 C 216.47 133.92 219.01 126.44 220.95 127.87 C 222.13 128.74 218.85 131.32 222.69 134.77 C 223.69 135.68 223.64 131.60 227.77 130.84 C 228.71 130.65 229.68 130.95 230.35 131.63 C 232.00 133.46 230.41 136.27 228.50 137.40 Z M 236.08 141.35 C 234.67 141.45 233.47 142.42 233.08 143.78 C 232.64 145.12 235.75 144.20 236.63 142.36 C 236.73 142.16 236.73 141.91 236.62 141.71 C 236.51 141.51 236.31 141.37 236.08 141.35 Z M 226.26 136.00 C 227.98 136.30 229.46 133.60 228.59 133.06 C 227.48 132.34 224.59 135.69 226.26 136.00 Z" fill="#6b7fff" fill-rule="nonzero" node-id="131" stroke="none" target-height="26.509995" target-width="24.069992" target-x="216.47" target-y="126.44"></path><path d="M 176.06 162.71 C 175.64 164.19 174.37 165.27 172.84 165.45 C 171.32 165.63 169.83 164.86 169.08 163.52 C 168.34 162.18 168.47 160.52 169.43 159.31 C 170.38 158.11 171.97 157.60 173.45 158.02 C 175.46 158.60 176.63 160.69 176.06 162.71 Z" fill="#6b7fff" fill-rule="nonzero" node-id="133" stroke="none" target-height="8.028671" target-width="8.295685" target-x="168.33589" target-y="157.59676"></path><path d="M 274.43 85.50 C 273.55 83.89 272.05 82.70 270.28 82.20 L 131.54 42.40 C 127.87 41.36 124.05 43.48 123.00 47.15 L 95.48 143.00 C 94.97 144.77 95.18 146.67 96.07 148.28 C 96.96 149.89 98.46 151.08 100.23 151.59 L 157.12 167.91 L 149.20 189.00 L 125.20 182.10 C 122.46 181.31 119.60 182.90 118.81 185.63 C 118.03 188.37 119.61 191.23 122.35 192.02 C 155.58 201.40 174.50 206.95 184.66 209.93 C 195.72 213.18 199.06 214.16 200.73 214.16 C 201.42 214.16 202.10 213.95 202.68 213.57 L 202.79 213.51 C 204.61 212.49 205.63 210.48 205.40 208.42 C 205.16 206.35 203.70 204.63 201.70 204.05 L 177.70 197.15 L 182.08 175.00 L 239.00 191.35 C 239.63 191.53 240.28 191.62 240.93 191.62 C 244.01 191.62 246.72 189.58 247.58 186.62 L 275.00 90.78 L 275.00 90.78 C 275.51 89.01 275.31 87.12 274.43 85.50 Z M 203.37 208.61 C 203.52 209.88 202.89 211.12 201.76 211.73 L 201.76 211.73 L 201.66 211.79 C 201.39 211.98 201.07 212.09 200.74 212.09 C 199.36 212.09 195.51 210.96 185.23 207.94 C 174.95 204.92 156.15 199.41 122.91 190.02 C 122.11 189.80 121.42 189.26 121.02 188.53 C 120.61 187.79 120.52 186.93 120.75 186.12 C 120.98 185.31 121.52 184.63 122.26 184.23 C 122.73 183.97 123.25 183.83 123.79 183.83 C 124.08 183.83 124.37 183.87 124.65 183.95 L 161.42 194.50 L 176.22 198.75 L 176.22 198.75 L 201.14 205.90 C 202.37 206.26 203.25 207.33 203.37 208.61 Z M 175.68 196.56 L 161.86 192.56 L 151.13 189.48 L 159.05 168.40 L 180.15 174.40 Z M 273.11 90.23 L 245.62 186.05 C 244.86 188.67 242.13 190.18 239.51 189.43 L 100.78 149.62 C 99.52 149.26 98.46 148.42 97.82 147.27 C 97.19 146.13 97.04 144.78 97.40 143.52 L 124.89 47.70 C 125.51 45.60 127.43 44.15 129.62 44.12 C 130.08 44.12 130.54 44.19 130.99 44.32 L 269.73 84.12 C 270.98 84.49 272.04 85.33 272.68 86.47 C 273.32 87.61 273.48 88.97 273.11 90.23 Z" fill="#0a1640" fill-rule="nonzero" node-id="135" stroke="none" target-height="172.80061" target-width="180.54315" target-x="94.967766" target-y="41.359386"></path><path d="M 200.00 85.30 C 195.79 82.92 190.36 82.09 188.80 82.30 C 186.24 82.62 186.20 85.76 186.80 87.85 C 186.89 88.16 187.00 88.45 187.13 88.74 C 189.13 92.97 195.75 94.23 199.29 91.49 C 200.29 90.70 201.00 89.59 201.29 88.34 C 201.68 87.15 201.13 85.85 200.00 85.30 Z" fill="#0a1640" fill-rule="nonzero" node-id="137" stroke="none" target-height="12.140007" target-width="15.476395" target-x="186.2" target-y="82.09"></path><path d="M 181.00 75.73 C 179.60 75.69 178.30 76.45 177.66 77.70 C 177.02 78.94 177.15 80.45 178.00 81.56 C 180.22 84.44 185.00 83.02 184.64 79.32 C 184.45 77.40 182.92 75.89 181.00 75.73 Z" fill="#0a1640" fill-rule="nonzero" node-id="139" stroke="none" target-height="8.753998" target-width="7.982712" target-x="177.01729" target-y="75.686005"></path><path d="M 210.70 84.25 C 208.99 83.36 206.89 83.81 205.70 85.33 C 203.42 88.33 206.70 92.02 210.14 90.75 C 211.43 90.25 212.33 89.06 212.45 87.67 C 212.57 86.29 211.89 84.96 210.70 84.25 Z" fill="#0a1640" fill-rule="nonzero" node-id="141" stroke="none" target-height="8.66198" target-width="9.149078" target-x="203.42" target-y="83.35802"></path><path d="M 199.33 91.48 C 195.78 94.22 189.17 92.96 187.17 88.73 C 187.04 88.44 186.93 88.15 186.84 87.84 C 188.87 86.25 191.54 85.73 194.02 86.45 C 196.50 87.17 198.47 89.05 199.33 91.48 Z" fill="#d811ad" fill-rule="nonzero" node-id="143" stroke="none" target-height="8.4915085" target-width="12.4900055" target-x="186.84" target-y="85.72849"></path><path d="M 256.80 180.86 C 261.73 178.86 274.00 175.94 279.89 176.34 C 282.57 176.55 284.64 178.78 284.64 181.47 C 284.64 184.15 282.57 186.38 279.89 186.59 C 273.97 187.01 261.62 184.24 256.79 182.35 C 256.48 182.23 256.28 181.93 256.29 181.60 C 256.29 181.27 256.49 180.98 256.80 180.86 Z" fill="#ff8cdb" fill-rule="nonzero" node-id="145" stroke="none" target-height="11.069992" target-width="28.353333" target-x="256.28427" target-y="175.94"></path><path d="M 248.56 199.48 C 252.33 201.38 259.70 206.26 262.56 209.98 C 263.91 211.68 263.69 214.13 262.07 215.58 C 260.45 217.02 257.99 216.94 256.46 215.41 C 253.08 212.10 249.08 204.15 247.65 200.27 C 247.55 200.02 247.62 199.73 247.83 199.55 C 248.03 199.38 248.32 199.35 248.56 199.48 Z" fill="#ff8cdb" fill-rule="nonzero" node-id="147" stroke="none" target-height="17.669876" target-width="16.354996" target-x="247.55199" target-y="199.34758"></path><path d="M 253.81 191.00 C 256.52 194.24 266.52 202.10 270.88 204.00 C 273.02 204.92 275.50 204.00 276.53 201.92 C 277.45 200.08 276.83 197.84 275.09 196.74 C 271.09 194.20 258.64 190.38 254.42 189.91 C 254.14 189.86 253.86 189.99 253.73 190.24 C 253.59 190.48 253.62 190.79 253.81 191.00 Z" fill="#ff8cdb" fill-rule="nonzero" node-id="149" stroke="none" target-height="15.056915" target-width="23.867523" target-x="253.58746" target-y="189.8592"></path><path d="M 115.26 54.07 C 113.40 49.07 107.36 38.07 103.11 33.93 C 101.17 32.03 98.09 31.97 96.07 33.79 C 94.06 35.60 93.80 38.67 95.49 40.80 C 99.16 45.47 109.49 52.80 114.15 55.07 C 114.45 55.21 114.80 55.16 115.04 54.94 C 115.28 54.72 115.37 54.38 115.26 54.07 Z" fill="#ff8cdb" fill-rule="nonzero" node-id="151" stroke="none" target-height="23.238762" target-width="21.564407" target-x="93.8033" target-y="31.970398"></path><path d="M 107.00 72.68 C 103.06 71.17 94.49 68.98 89.80 69.34 C 87.62 69.46 85.93 71.28 85.94 73.46 C 85.96 75.64 87.69 77.42 89.87 77.51 C 94.59 77.79 103.17 75.42 107.01 73.87 C 107.25 73.77 107.41 73.53 107.41 73.27 C 107.41 73.01 107.24 72.77 107.00 72.68 Z" fill="#ff8cdb" fill-rule="nonzero" node-id="153" stroke="none" target-height="8.809998" target-width="21.485924" target-x="85.925575" target-y="68.98"></path><path d="M 109.75 63.10 C 105.53 63.26 93.00 61.10 88.63 59.19 C 86.52 58.22 85.52 55.78 86.37 53.61 C 87.11 51.68 89.20 50.64 91.19 51.20 C 95.78 52.50 106.94 59.12 110.12 61.93 C 110.33 62.10 110.41 62.38 110.33 62.64 C 110.25 62.90 110.02 63.08 109.75 63.10 Z" fill="#ff8cdb" fill-rule="nonzero" node-id="155" stroke="none" target-height="12.621841" target-width="24.890884" target-x="85.52311" target-y="50.638157"></path><path d="M 18.00 126.37 C 19.21 128.08 20.55 129.70 22.00 131.21 C 22.53 131.90 23.43 132.19 24.27 131.95 C 24.82 131.62 25.10 130.98 24.96 130.35 C 24.77 129.62 24.12 129.16 23.77 128.51 C 24.51 127.85 25.29 127.25 26.11 126.70 C 27.42 127.47 28.29 128.81 28.46 130.31 C 28.63 131.82 28.08 133.32 26.97 134.36 C 25.56 135.93 23.05 137.08 21.27 135.36 C 19.82 133.82 18.34 132.11 15.32 128.44 C 14.96 128.09 14.69 127.64 14.55 127.16 C 14.25 126.45 14.15 125.67 14.24 124.91 C 14.34 124.51 14.52 124.13 14.77 123.80 C 16.99 120.19 22.56 120.31 24.12 124.33 C 23.43 125.16 22.57 125.84 21.61 126.33 C 20.72 125.55 19.81 123.93 18.55 125.09 C 18.25 125.36 18.04 125.71 17.93 126.09 C 17.94 126.19 17.96 126.28 18.00 126.37 Z" fill="#0a1640" fill-rule="nonzero" node-id="157" stroke="none" target-height="16.89" target-width="14.483304" target-x="14.146049" target-y="120.19"></path><path d="M 40.41 124.38 C 39.54 124.94 38.52 125.76 37.41 126.38 L 37.41 126.38 C 35.68 125.16 33.81 124.16 31.84 123.38 L 31.77 123.38 C 32.66 124.93 33.67 126.41 34.77 127.82 C 34.16 128.71 31.89 129.90 31.68 130.11 C 31.83 130.01 24.19 118.39 23.20 117.27 C 24.61 115.94 26.19 114.80 27.89 113.87 C 29.31 113.03 31.06 113.00 32.51 113.77 C 33.96 114.55 34.90 116.03 34.99 117.67 C 35.16 118.89 34.64 120.11 33.63 120.83 L 33.55 120.83 L 33.55 120.83 L 33.55 120.83 C 35.76 121.99 38.39 122.73 40.44 124.28 Z M 29.08 120.38 L 29.08 120.38 C 29.77 120.05 30.41 119.63 31.00 119.14 C 31.81 118.33 30.93 116.80 29.90 116.71 C 28.91 116.71 28.00 117.27 27.55 118.15 C 28.00 118.74 28.63 119.87 29.08 120.36 Z" fill="#0a1640" fill-rule="nonzero" node-id="159" stroke="none" target-height="17.114815" target-width="17.239998" target-x="23.2" target-y="112.995186"></path><path d="M 47.82 117.47 C 48.35 118.28 48.75 119.18 49.00 120.12 C 46.31 121.44 43.55 123.06 40.91 124.12 C 38.63 119.56 36.20 115.28 34.21 110.65 C 37.21 108.97 42.21 106.34 42.30 106.46 C 42.83 107.36 43.30 108.29 43.69 109.26 L 43.69 109.26 C 42.21 110.47 40.31 111.05 38.69 112.07 L 38.63 112.07 L 38.63 112.07 C 38.94 112.87 39.34 113.64 39.80 114.36 L 39.80 114.36 C 40.62 114.03 41.44 113.59 42.25 113.21 L 42.25 113.21 C 42.77 114.11 43.22 115.04 43.61 116.00 C 42.91 116.62 41.50 117.00 41.33 117.40 C 41.64 118.27 42.06 119.09 42.56 119.86 L 42.56 119.86 C 44.29 119.00 46.01 118.34 47.77 117.39 Z" fill="#0a1640" fill-rule="nonzero" node-id="161" stroke="none" target-height="17.780006" target-width="14.790001" target-x="34.21" target-y="106.34"></path><path d="M 58.66 116.55 L 58.66 116.55 C 57.80 117.03 56.85 117.35 55.87 117.48 L 55.87 117.48 C 55.21 116.71 54.33 115.14 53.66 114.48 C 53.21 114.57 52.78 114.73 52.37 114.93 C 52.32 115.93 52.87 117.63 52.73 118.71 C 52.73 118.71 52.73 118.71 52.67 118.71 C 52.47 118.86 51.67 119.04 49.78 119.71 L 49.78 119.71 C 48.79 114.56 48.07 109.36 47.64 104.13 C 48.01 103.92 48.39 103.93 50.15 103.13 L 54.52 109.82 Z M 51.31 112.55 C 51.79 112.40 52.31 112.18 52.84 111.99 C 49.40 105.18 50.33 108.11 51.31 112.56 Z" fill="#0a1640" fill-rule="nonzero" node-id="163" stroke="none" target-height="16.580002" target-width="11.02" target-x="47.64" target-y="103.13"></path><path d="M 63.08 103.14 C 62.20 103.29 61.33 103.52 60.49 103.84 L 60.43 103.84 C 60.43 103.84 60.43 103.84 60.43 103.91 C 60.43 104.34 60.90 105.91 63.57 115.11 L 63.57 115.16 C 62.57 115.61 61.11 115.80 60.13 116.25 C 60.00 116.01 59.41 112.80 56.93 104.97 L 56.93 104.97 C 56.18 104.81 54.68 105.42 54.31 105.40 C 53.85 104.34 53.51 103.23 53.31 102.09 C 53.31 102.09 53.31 102.09 53.31 102.09 C 56.26 101.18 59.27 100.43 62.31 99.86 C 62.67 100.93 62.93 102.02 63.08 103.14 Z" fill="#0a1640" fill-rule="nonzero" node-id="165" stroke="none" target-height="16.39" target-width="10.259998" target-x="53.31" target-y="99.86"></path><path d="M 68.35 98.56 L 68.35 98.65 C 69.26 103.60 69.90 108.81 71.08 113.65 C 70.69 114.21 67.75 114.28 67.18 114.56 C 66.63 109.27 64.90 104.11 64.53 99.17 L 64.53 99.17 C 64.67 99.12 65.23 99.08 65.42 99.05 C 65.94 98.98 66.52 98.94 67.81 98.68 Z" fill="#0a1640" fill-rule="nonzero" node-id="167" stroke="none" target-height="16" target-width="6.550003" target-x="64.53" target-y="98.56"></path><path d="M 77.66 113.00 C 77.41 113.00 76.90 113.16 76.29 113.22 C 75.68 113.31 75.06 113.31 74.45 113.22 C 72.66 108.51 71.32 103.64 70.45 98.68 L 70.45 98.68 C 70.74 98.26 73.06 98.10 73.53 98.16 C 73.86 99.28 74.08 103.70 75.70 108.32 C 76.35 103.48 76.23 100.39 76.62 97.88 C 76.62 97.88 76.62 97.88 76.62 97.88 C 77.62 98.01 78.77 97.69 79.79 97.77 C 79.35 102.94 78.56 107.75 77.66 113.00 Z" fill="#0a1640" fill-rule="nonzero" node-id="169" stroke="none" target-height="15.615387" target-width="9.340004" target-x="70.45" target-y="97.69"></path><path d="M 91.34 109.80 C 91.43 110.77 91.36 111.74 91.13 112.68 C 88.13 112.61 84.94 112.79 82.13 112.51 C 82.20 107.40 82.00 102.51 82.36 97.46 C 85.77 97.33 91.47 97.32 91.47 97.46 C 91.54 98.50 91.54 99.54 91.47 100.58 L 91.47 100.58 C 89.59 100.97 87.64 100.58 85.70 100.76 L 85.63 100.76 L 85.63 100.76 C 85.54 101.61 85.54 102.48 85.63 103.33 L 85.63 103.33 C 86.51 103.41 87.43 103.40 88.33 103.44 L 88.33 103.44 C 88.40 104.46 88.40 105.48 88.33 106.50 C 87.43 106.73 85.98 106.50 85.67 106.70 C 85.56 107.61 85.56 108.54 85.67 109.45 L 85.67 109.45 C 87.61 109.45 89.43 109.68 91.43 109.64 Z" fill="#0a1640" fill-rule="nonzero" node-id="171" stroke="none" target-height="15.470001" target-width="9.5449295" target-x="82" target-y="97.32"></path><path d="M 46.57 137.00 C 45.75 137.35 44.96 137.79 44.23 138.31 L 44.23 138.31 L 44.23 138.31 C 44.23 138.31 44.23 138.36 44.23 138.38 C 44.36 138.79 45.17 140.18 50.02 148.47 L 50.02 148.47 L 50.02 148.47 C 49.16 149.15 47.78 149.70 46.94 150.37 C 46.76 150.17 45.39 147.21 41.07 140.22 L 41.07 140.22 C 40.31 140.22 39.00 141.22 38.64 141.28 C 37.94 140.35 37.35 139.34 36.88 138.28 C 36.88 138.28 36.88 138.28 36.88 138.28 C 39.50 136.68 42.21 135.23 45.00 133.93 C 45.62 134.90 46.15 135.93 46.57 137.00 Z" fill="#0a1640" fill-rule="nonzero" node-id="173" stroke="none" target-height="16.440002" target-width="13.139999" target-x="36.88" target-y="133.93"></path><path d="M 50.60 131.19 L 50.60 131.27 C 52.70 135.85 54.60 140.74 56.93 145.17 C 56.69 145.81 53.85 146.60 53.37 147.01 C 51.54 142.01 48.60 137.43 47.04 132.73 L 47.04 132.73 C 47.17 132.65 47.70 132.48 47.88 132.40 C 48.37 132.20 48.88 132.02 50.11 131.40 Z" fill="#0a1640" fill-rule="nonzero" node-id="175" stroke="none" target-height="15.819992" target-width="9.889999" target-x="47.04" target-y="131.19"></path><path d="M 66.47 141.75 C 65.54 142.02 64.63 142.33 63.73 142.70 C 62.78 140.38 61.66 136.98 60.56 134.75 C 60.41 135.44 60.56 138.16 60.33 138.24 C 59.91 138.37 58.03 135.77 58.02 135.82 C 58.78 138.50 59.74 141.11 60.89 143.65 C 59.96 144.09 59.00 144.45 58.01 144.75 C 57.98 144.76 57.96 144.76 57.93 144.75 C 57.69 144.41 56.79 141.89 52.85 130.61 C 53.74 130.16 54.67 129.79 55.63 129.50 L 55.63 129.50 C 56.36 129.90 57.45 131.65 58.12 132.14 C 58.16 132.16 58.22 132.16 58.26 132.14 C 58.45 132.14 58.06 129.29 58.33 128.47 C 58.75 128.39 60.50 127.60 61.33 127.29 C 62.17 129.98 63.33 132.45 64.11 135.15 Z" fill="#0a1640" fill-rule="nonzero" node-id="177" stroke="none" target-height="17.469154" target-width="13.620003" target-x="52.85" target-y="127.29"></path><path d="M 76.00 136.38 C 76.31 137.30 76.48 138.26 76.49 139.23 C 73.57 139.89 70.49 140.83 67.69 141.23 C 66.53 136.23 65.16 131.54 64.29 126.57 C 67.57 125.57 73.10 124.24 73.13 124.36 C 73.43 125.34 73.67 126.35 73.84 127.36 L 73.84 127.36 C 72.12 128.19 70.14 128.36 68.29 128.93 L 68.23 128.93 L 68.23 128.93 C 68.35 129.78 68.55 130.62 68.84 131.43 L 68.84 131.43 C 69.72 131.29 70.61 131.06 71.49 130.88 L 71.49 130.88 C 71.80 131.86 72.05 132.87 72.23 133.88 C 71.40 134.32 69.94 134.41 69.69 134.72 C 69.79 135.64 70.00 136.53 70.32 137.40 L 70.32 137.40 C 72.21 136.96 74.03 136.72 75.96 136.20 Z" fill="#0a1640" fill-rule="nonzero" node-id="179" stroke="none" target-height="16.989998" target-width="12.199997" target-x="64.29" target-y="124.24"></path><path d="M 75.63 123.88 C 76.49 123.58 77.39 123.43 78.30 123.43 C 78.80 127.16 79.30 131.24 80.06 134.94 C 79.31 135.14 78.12 135.32 77.27 135.47 L 77.27 135.47 C 76.76 131.63 75.94 127.88 75.59 123.89 Z M 77.93 139.13 C 77.74 139.13 77.74 137.38 77.62 136.57 L 77.62 136.57 C 78.47 136.28 79.37 136.13 80.27 136.13 C 80.37 136.94 80.47 137.90 80.60 138.75 L 80.45 138.75 L 79.62 138.85 L 79.62 138.85 Z" fill="#0a1640" fill-rule="nonzero" node-id="181" stroke="none" target-height="15.704376" target-width="5.010002" target-x="75.59" target-y="123.42563"></path></svg>